{
    "asset" : {
        "generator" : "Khronos glTF Blender I/O v1.7.33",
        "version" : "2.0"
    },
    "scene" : 0,
    "scenes" : [
        {
            "name" : "Scene",
            "nodes" : [
                0
            ]
        }
    ],
    "nodes" : [
        {
            "mesh" : 0,
            "name" : "Curve",
            "translation" : [
                -0.15949073433876038,
                0,
                0.48532941937446594
            ]
        }
    ],
    "materials" : [
        {
            "doubleSided" : true,
            "name" : "SVGMat.004",
            "pbrMetallicRoughness" : {
                "baseColorFactor" : [
                    0.7529422044754028,
                    0.8069522380828857,
                    0.8468732237815857,
                    1
                ],
                "metallicFactor" : 0,
                "roughnessFactor" : 0.4000000059604645
            }
        }
    ],
    "meshes" : [
        {
            "name" : "Curve.002",
            "primitives" : [
                {
                    "attributes" : {
                        "POSITION" : 0,
                        "NORMAL" : 1,
                        "TEXCOORD_0" : 2
                    },
                    "indices" : 3,
                    "material" : 0
                }
            ]
        }
    ],
    "accessors" : [
        {
            "bufferView" : 0,
            "componentType" : 5126,
            "count" : 1099,
            "max" : [
                1.2052021026611328,
                0.10000000149011612,
                -0.12341703474521637
            ],
            "min" : [
                -0.8270077109336853,
                0,
                -1.2521840333938599
            ],
            "type" : "VEC3"
        },
        {
            "bufferView" : 1,
            "componentType" : 5126,
            "count" : 1099,
            "type" : "VEC3"
        },
        {
            "bufferView" : 2,
            "componentType" : 5126,
            "count" : 1099,
            "type" : "VEC2"
        },
        {
            "bufferView" : 3,
            "componentType" : 5123,
            "count" : 1716,
            "type" : "SCALAR"
        }
    ],
    "bufferViews" : [
        {
            "buffer" : 0,
            "byteLength" : 13188,
            "byteOffset" : 0
        },
        {
            "buffer" : 0,
            "byteLength" : 13188,
            "byteOffset" : 13188
        },
        {
            "buffer" : 0,
            "byteLength" : 8792,
            "byteOffset" : 26376
        },
        {
            "buffer" : 0,
            "byteLength" : 3432,
            "byteOffset" : 35168
        }
    ],
    "buffers" : [
        {
            "byteLength" : 38600,
            "uri" : "data:application/octet-stream;base64,"
        }
    ]
}
