{
    "asset" : {
        "generator" : "Khronos glTF Blender I/O v1.7.33",
        "version" : "2.0"
    },
    "scene" : 0,
    "scenes" : [
        {
            "name" : "Scene",
            "nodes" : [
                0,
                1,
                2,
                3,
                4,
                5
            ]
        }
    ],
    "nodes" : [
        {
            "mesh" : 0,
            "name" : "Curve",
            "scale" : [
                195.7284698486328,
                1,
                195.7284698486328
            ],
            "translation" : [
                -1,
                0,
                1
            ]
        },
        {
            "mesh" : 1,
            "name" : "Curve.001",
            "scale" : [
                195.7284698486328,
                1,
                195.7284698486328
            ],
            "translation" : [
                -1,
                0,
                1
            ]
        },
        {
            "mesh" : 2,
            "name" : "Curve.002",
            "scale" : [
                195.7284698486328,
                1,
                195.7284698486328
            ],
            "translation" : [
                -1,
                0,
                1
            ]
        },
        {
            "mesh" : 3,
            "name" : "Curve.003",
            "scale" : [
                195.7284698486328,
                1,
                195.7284698486328
            ],
            "translation" : [
                -1,
                0,
                1
            ]
        },
        {
            "mesh" : 4,
            "name" : "Curve.004",
            "scale" : [
                195.7284698486328,
                1,
                195.7284698486328
            ],
            "translation" : [
                -1,
                0,
                1
            ]
        },
        {
            "mesh" : 5,
            "name" : "Curve.005",
            "scale" : [
                195.7284698486328,
                1,
                195.7284698486328
            ],
            "translation" : [
                -1,
                0,
                1
            ]
        }
    ],
    "materials" : [
        {
            "doubleSided" : true,
            "name" : "SVGMat.021",
            "pbrMetallicRoughness" : {
                "baseColorFactor" : [
                    0.9130986332893372,
                    0.9386857151985168,
                    0.9559733271598816,
                    1
                ],
                "metallicFactor" : 0,
                "roughnessFactor" : 0.4000000059604645
            }
        },
        {
            "doubleSided" : true,
            "name" : "SVGMat.022",
            "pbrMetallicRoughness" : {
                "baseColorFactor" : [
                    0.7529422044754028,
                    0.8069522380828857,
                    0.8468732237815857,
                    1
                ],
                "metallicFactor" : 0,
                "roughnessFactor" : 0.4000000059604645
            }
        },
        {
            "doubleSided" : true,
            "name" : "SVGMat.023",
            "pbrMetallicRoughness" : {
                "baseColorFactor" : [
                    0.6038273572921753,
                    0.672443151473999,
                    0.7230551242828369,
                    1
                ],
                "metallicFactor" : 0,
                "roughnessFactor" : 0.4000000059604645
            }
        },
        {
            "doubleSided" : true,
            "name" : "SVGMat.024",
            "pbrMetallicRoughness" : {
                "baseColorFactor" : [
                    0.7529422044754028,
                    0.8069522380828857,
                    0.8468732237815857,
                    1
                ],
                "metallicFactor" : 0,
                "roughnessFactor" : 0.4000000059604645
            }
        },
        {
            "doubleSided" : true,
            "name" : "SVGMat.025",
            "pbrMetallicRoughness" : {
                "baseColorFactor" : [
                    0.9130986332893372,
                    0.9386857151985168,
                    0.9559733271598816,
                    1
                ],
                "metallicFactor" : 0,
                "roughnessFactor" : 0.4000000059604645
            }
        },
        {
            "doubleSided" : true,
            "name" : "SVGMat.026",
            "pbrMetallicRoughness" : {
                "baseColorFactor" : [
                    0.6038273572921753,
                    0.672443151473999,
                    0.7230551242828369,
                    1
                ],
                "metallicFactor" : 0,
                "roughnessFactor" : 0.4000000059604645
            }
        }
    ],
    "meshes" : [
        {
            "name" : "Curve.014",
            "primitives" : [
                {
                    "attributes" : {
                        "POSITION" : 0,
                        "NORMAL" : 1,
                        "TEXCOORD_0" : 2
                    },
                    "indices" : 3,
                    "material" : 0
                }
            ]
        },
        {
            "name" : "Curve.015",
            "primitives" : [
                {
                    "attributes" : {
                        "POSITION" : 4,
                        "NORMAL" : 5,
                        "TEXCOORD_0" : 6
                    },
                    "indices" : 7,
                    "material" : 1
                }
            ]
        },
        {
            "name" : "Curve.016",
            "primitives" : [
                {
                    "attributes" : {
                        "POSITION" : 8,
                        "NORMAL" : 9,
                        "TEXCOORD_0" : 10
                    },
                    "indices" : 11,
                    "material" : 2
                }
            ]
        },
        {
            "name" : "Curve.017",
            "primitives" : [
                {
                    "attributes" : {
                        "POSITION" : 12,
                        "NORMAL" : 13,
                        "TEXCOORD_0" : 14
                    },
                    "indices" : 15,
                    "material" : 3
                }
            ]
        },
        {
            "name" : "Curve.018",
            "primitives" : [
                {
                    "attributes" : {
                        "POSITION" : 16,
                        "NORMAL" : 17,
                        "TEXCOORD_0" : 18
                    },
                    "indices" : 19,
                    "material" : 4
                }
            ]
        },
        {
            "name" : "Curve.019",
            "primitives" : [
                {
                    "attributes" : {
                        "POSITION" : 20,
                        "NORMAL" : 21,
                        "TEXCOORD_0" : 22
                    },
                    "indices" : 23,
                    "material" : 5
                }
            ]
        }
    ],
    "accessors" : [
        {
            "bufferView" : 0,
            "componentType" : 5126,
            "count" : 271,
            "max" : [
                0.010160207748413086,
                0.09875000268220901,
                -0.00733637809753418
            ],
            "min" : [
                0,
                0,
                -0.010158061981201172
            ],
            "type" : "VEC3"
        },
        {
            "bufferView" : 1,
            "componentType" : 5126,
            "count" : 271,
            "type" : "VEC3"
        },
        {
            "bufferView" : 2,
            "componentType" : 5126,
            "count" : 271,
            "type" : "VEC2"
        },
        {
            "bufferView" : 3,
            "componentType" : 5123,
            "count" : 456,
            "type" : "SCALAR"
        },
        {
            "bufferView" : 4,
            "componentType" : 5126,
            "count" : 1336,
            "max" : [
                0.010160207748413086,
                0.0989999994635582,
                -0.005079030990600586
            ],
            "min" : [
                0,
                0,
                -0.008747220039367676
            ],
            "type" : "VEC3"
        },
        {
            "bufferView" : 5,
            "componentType" : 5126,
            "count" : 1336,
            "type" : "VEC3"
        },
        {
            "bufferView" : 6,
            "componentType" : 5126,
            "count" : 1336,
            "type" : "VEC2"
        },
        {
            "bufferView" : 7,
            "componentType" : 5123,
            "count" : 2160,
            "type" : "SCALAR"
        },
        {
            "bufferView" : 8,
            "componentType" : 5126,
            "count" : 1492,
            "max" : [
                0.010160207748413086,
                0.09925000369548798,
                -0.0029173390939831734
            ],
            "min" : [
                0,
                0,
                -0.007700657472014427
            ],
            "type" : "VEC3"
        },
        {
            "bufferView" : 9,
            "componentType" : 5126,
            "count" : 1492,
            "type" : "VEC3"
        },
        {
            "bufferView" : 10,
            "componentType" : 5126,
            "count" : 1492,
            "type" : "VEC2"
        },
        {
            "bufferView" : 11,
            "componentType" : 5123,
            "count" : 2304,
            "type" : "SCALAR"
        },
        {
            "bufferView" : 12,
            "componentType" : 5126,
            "count" : 1219,
            "max" : [
                0.010160207748413086,
                0.09950000047683716,
                -0.0015522083267569542
            ],
            "min" : [
                -2.8222800096955325e-07,
                0,
                -0.0045146942138671875
            ],
            "type" : "VEC3"
        },
        {
            "bufferView" : 13,
            "componentType" : 5126,
            "count" : 1219,
            "type" : "VEC3"
        },
        {
            "bufferView" : 14,
            "componentType" : 5126,
            "count" : 1219,
            "type" : "VEC2"
        },
        {
            "bufferView" : 15,
            "componentType" : 5123,
            "count" : 1884,
            "type" : "SCALAR"
        },
        {
            "bufferView" : 16,
            "componentType" : 5126,
            "count" : 1358,
            "max" : [
                0.008184611797332764,
                0.09974999725818634,
                -0.0005358373746275902
            ],
            "min" : [
                -1.2533440641403475e-19,
                0,
                -0.003728085197508335
            ],
            "type" : "VEC3"
        },
        {
            "bufferView" : 17,
            "componentType" : 5126,
            "count" : 1358,
            "type" : "VEC3"
        },
        {
            "bufferView" : 18,
            "componentType" : 5126,
            "count" : 1358,
            "type" : "VEC2"
        },
        {
            "bufferView" : 19,
            "componentType" : 5123,
            "count" : 2148,
            "type" : "SCALAR"
        },
        {
            "bufferView" : 20,
            "componentType" : 5126,
            "count" : 1728,
            "max" : [
                0.010160207748413086,
                0.10000000149011612,
                0
            ],
            "min" : [
                0,
                0,
                -0.003468131646513939
            ],
            "type" : "VEC3"
        },
        {
            "bufferView" : 21,
            "componentType" : 5126,
            "count" : 1728,
            "type" : "VEC3"
        },
        {
            "bufferView" : 22,
            "componentType" : 5126,
            "count" : 1728,
            "type" : "VEC2"
        },
        {
            "bufferView" : 23,
            "componentType" : 5123,
            "count" : 2868,
            "type" : "SCALAR"
        }
    ],
    "bufferViews" : [
        {
            "buffer" : 0,
            "byteLength" : 3252,
            "byteOffset" : 0
        },
        {
            "buffer" : 0,
            "byteLength" : 3252,
            "byteOffset" : 3252
        },
        {
            "buffer" : 0,
            "byteLength" : 2168,
            "byteOffset" : 6504
        },
        {
            "buffer" : 0,
            "byteLength" : 912,
            "byteOffset" : 8672
        },
        {
            "buffer" : 0,
            "byteLength" : 16032,
            "byteOffset" : 9584
        },
        {
            "buffer" : 0,
            "byteLength" : 16032,
            "byteOffset" : 25616
        },
        {
            "buffer" : 0,
            "byteLength" : 10688,
            "byteOffset" : 41648
        },
        {
            "buffer" : 0,
            "byteLength" : 4320,
            "byteOffset" : 52336
        },
        {
            "buffer" : 0,
            "byteLength" : 17904,
            "byteOffset" : 56656
        },
        {
            "buffer" : 0,
            "byteLength" : 17904,
            "byteOffset" : 74560
        },
        {
            "buffer" : 0,
            "byteLength" : 11936,
            "byteOffset" : 92464
        },
        {
            "buffer" : 0,
            "byteLength" : 4608,
            "byteOffset" : 104400
        },
        {
            "buffer" : 0,
            "byteLength" : 14628,
            "byteOffset" : 109008
        },
        {
            "buffer" : 0,
            "byteLength" : 14628,
            "byteOffset" : 123636
        },
        {
            "buffer" : 0,
            "byteLength" : 9752,
            "byteOffset" : 138264
        },
        {
            "buffer" : 0,
            "byteLength" : 3768,
            "byteOffset" : 148016
        },
        {
            "buffer" : 0,
            "byteLength" : 16296,
            "byteOffset" : 151784
        },
        {
            "buffer" : 0,
            "byteLength" : 16296,
            "byteOffset" : 168080
        },
        {
            "buffer" : 0,
            "byteLength" : 10864,
            "byteOffset" : 184376
        },
        {
            "buffer" : 0,
            "byteLength" : 4296,
            "byteOffset" : 195240
        },
        {
            "buffer" : 0,
            "byteLength" : 20736,
            "byteOffset" : 199536
        },
        {
            "buffer" : 0,
            "byteLength" : 20736,
            "byteOffset" : 220272
        },
        {
            "buffer" : 0,
            "byteLength" : 13824,
            "byteOffset" : 241008
        },
        {
            "buffer" : 0,
            "byteLength" : 5736,
            "byteOffset" : 254832
        }
    ],
    "buffers" : [
        {
            "byteLength" : 260568,
            "uri" : "data:application/octet-stream;base64,"
        }
    ]
}
