{
    "asset" : {
        "generator" : "Khronos glTF Blender I/O v1.7.33",
        "version" : "2.0"
    },
    "scene" : 0,
    "scenes" : [
        {
            "name" : "Scene",
            "nodes" : [
                0,
                1
            ]
        }
    ],
    "nodes" : [
        {
            "mesh" : 0,
            "name" : "Curve",
            "translation" : [
                -0.15923555195331573,
                0,
                0.1156444400548935
            ]
        },
        {
            "mesh" : 1,
            "name" : "Curve.001",
            "translation" : [
                -0.15923555195331573,
                0,
                0.1156444400548935
            ]
        }
    ],
    "materials" : [
        {
            "doubleSided" : true,
            "name" : "SVGMat.004",
            "pbrMetallicRoughness" : {
                "baseColorFactor" : [
                    0.7529422044754028,
                    0.8069522380828857,
                    0.8468732237815857,
                    1
                ],
                "metallicFactor" : 0,
                "roughnessFactor" : 0.4000000059604645
            }
        },
        {
            "doubleSided" : true,
            "name" : "SVGMat.005",
            "pbrMetallicRoughness" : {
                "baseColorFactor" : [
                    0.109461709856987,
                    0.41788506507873535,
                    0.838798999786377,
                    1
                ],
                "metallicFactor" : 0,
                "roughnessFactor" : 0.4000000059604645
            }
        }
    ],
    "meshes" : [
        {
            "name" : "Curve.002",
            "primitives" : [
                {
                    "attributes" : {
                        "POSITION" : 0,
                        "NORMAL" : 1,
                        "TEXCOORD_0" : 2
                    },
                    "indices" : 3,
                    "material" : 0
                }
            ]
        },
        {
            "name" : "Curve.003",
            "primitives" : [
                {
                    "attributes" : {
                        "POSITION" : 4,
                        "NORMAL" : 5,
                        "TEXCOORD_0" : 6
                    },
                    "indices" : 7,
                    "material" : 1
                }
            ]
        }
    ],
    "accessors" : [
        {
            "bufferView" : 0,
            "componentType" : 5126,
            "count" : 1099,
            "max" : [
                1.2052021026611328,
                0.10000000149011612,
                -0.12341703474521637
            ],
            "min" : [
                -0.8270077109336853,
                0,
                -1.2521840333938599
            ],
            "type" : "VEC3"
        },
        {
            "bufferView" : 1,
            "componentType" : 5126,
            "count" : 1099,
            "type" : "VEC3"
        },
        {
            "bufferView" : 2,
            "componentType" : 5126,
            "count" : 1099,
            "type" : "VEC2"
        },
        {
            "bufferView" : 3,
            "componentType" : 5123,
            "count" : 1716,
            "type" : "SCALAR"
        },
        {
            "bufferView" : 4,
            "componentType" : 5126,
            "count" : 1911,
            "max" : [
                0.8099936842918396,
                0.10000000149011612,
                0.7491198778152466
            ],
            "min" : [
                -0.7705010175704956,
                0,
                -0.03650188818573952
            ],
            "type" : "VEC3"
        },
        {
            "bufferView" : 5,
            "componentType" : 5126,
            "count" : 1911,
            "type" : "VEC3"
        },
        {
            "bufferView" : 6,
            "componentType" : 5126,
            "count" : 1911,
            "type" : "VEC2"
        },
        {
            "bufferView" : 7,
            "componentType" : 5123,
            "count" : 3108,
            "type" : "SCALAR"
        }
    ],
    "bufferViews" : [
        {
            "buffer" : 0,
            "byteLength" : 13188,
            "byteOffset" : 0
        },
        {
            "buffer" : 0,
            "byteLength" : 13188,
            "byteOffset" : 13188
        },
        {
            "buffer" : 0,
            "byteLength" : 8792,
            "byteOffset" : 26376
        },
        {
            "buffer" : 0,
            "byteLength" : 3432,
            "byteOffset" : 35168
        },
        {
            "buffer" : 0,
            "byteLength" : 22932,
            "byteOffset" : 38600
        },
        {
            "buffer" : 0,
            "byteLength" : 22932,
            "byteOffset" : 61532
        },
        {
            "buffer" : 0,
            "byteLength" : 15288,
            "byteOffset" : 84464
        },
        {
            "buffer" : 0,
            "byteLength" : 6216,
            "byteOffset" : 99752
        }
    ],
    "buffers" : [
        {
            "byteLength" : 105968,
            "uri" : "data:application/octet-stream;base64,"
        }
    ]
}
