{
    "asset" : {
        "generator" : "Khronos glTF Blender I/O v1.7.33",
        "version" : "2.0"
    },
    "scene" : 0,
    "scenes" : [
        {
            "name" : "Scene",
            "nodes" : [
                0,
                1,
                2,
                3,
                4
            ]
        }
    ],
    "nodes" : [
        {
            "mesh" : 0,
            "name" : "Curve",
            "scale" : [
                195.52523803710938,
                1,
                195.52523803710938
            ],
            "translation" : [
                -0.943491518497467,
                0,
                0.8822506666183472
            ]
        },
        {
            "mesh" : 1,
            "name" : "Curve.001",
            "scale" : [
                195.52523803710938,
                1,
                195.52523803710938
            ],
            "translation" : [
                -0.943491518497467,
                0,
                0.8822506666183472
            ]
        },
        {
            "mesh" : 2,
            "name" : "Curve.002",
            "scale" : [
                195.52523803710938,
                1,
                195.52523803710938
            ],
            "translation" : [
                -0.943491518497467,
                0,
                0.8822506666183472
            ]
        },
        {
            "mesh" : 3,
            "name" : "Curve.003",
            "scale" : [
                195.52523803710938,
                1,
                195.52523803710938
            ],
            "translation" : [
                -0.943491518497467,
                0,
                0.8822506666183472
            ]
        },
        {
            "mesh" : 4,
            "name" : "Curve.004",
            "scale" : [
                193.81881713867188,
                1,
                193.81881713867188
            ],
            "translation" : [
                -1,
                0,
                1.2811497449874878
            ]
        }
    ],
    "materials" : [
        {
            "doubleSided" : true,
            "name" : "SVGMat.028",
            "pbrMetallicRoughness" : {
                "baseColorFactor" : [
                    1,
                    0.4125426113605499,
                    0.03310476616024971,
                    1
                ],
                "metallicFactor" : 0,
                "roughnessFactor" : 0.4000000059604645
            }
        },
        {
            "doubleSided" : true,
            "name" : "SVGMat.029",
            "pbrMetallicRoughness" : {
                "baseColorFactor" : [
                    1,
                    0.4125426113605499,
                    0.03310476616024971,
                    1
                ],
                "metallicFactor" : 0,
                "roughnessFactor" : 0.4000000059604645
            }
        },
        {
            "doubleSided" : true,
            "name" : "SVGMat.030",
            "pbrMetallicRoughness" : {
                "baseColorFactor" : [
                    0.7529422044754028,
                    0.8069522380828857,
                    0.8468732237815857,
                    1
                ],
                "metallicFactor" : 0,
                "roughnessFactor" : 0.4000000059604645
            }
        },
        {
            "doubleSided" : true,
            "name" : "SVGMat.031",
            "pbrMetallicRoughness" : {
                "baseColorFactor" : [
                    0.109461709856987,
                    0.41788506507873535,
                    0.838798999786377,
                    1
                ],
                "metallicFactor" : 0,
                "roughnessFactor" : 0.4000000059604645
            }
        },
        {
            "doubleSided" : true,
            "name" : "SVGMat.033",
            "pbrMetallicRoughness" : {
                "baseColorFactor" : [
                    0.9046611785888672,
                    0.2788942754268646,
                    0.0036765073891729116,
                    1
                ],
                "metallicFactor" : 0,
                "roughnessFactor" : 0.4000000059604645
            }
        }
    ],
    "meshes" : [
        {
            "name" : "Curve.020",
            "primitives" : [
                {
                    "attributes" : {
                        "POSITION" : 0,
                        "NORMAL" : 1,
                        "TEXCOORD_0" : 2
                    },
                    "indices" : 3,
                    "material" : 0
                }
            ]
        },
        {
            "name" : "Curve.021",
            "primitives" : [
                {
                    "attributes" : {
                        "POSITION" : 4,
                        "NORMAL" : 5,
                        "TEXCOORD_0" : 6
                    },
                    "indices" : 7,
                    "material" : 1
                }
            ]
        },
        {
            "name" : "Curve.022",
            "primitives" : [
                {
                    "attributes" : {
                        "POSITION" : 8,
                        "NORMAL" : 9,
                        "TEXCOORD_0" : 10
                    },
                    "indices" : 11,
                    "material" : 2
                }
            ]
        },
        {
            "name" : "Curve.023",
            "primitives" : [
                {
                    "attributes" : {
                        "POSITION" : 12,
                        "NORMAL" : 13,
                        "TEXCOORD_0" : 14
                    },
                    "indices" : 15,
                    "material" : 3
                }
            ]
        },
        {
            "name" : "Curve.024",
            "primitives" : [
                {
                    "attributes" : {
                        "POSITION" : 16,
                        "NORMAL" : 17,
                        "TEXCOORD_0" : 18
                    },
                    "indices" : 19,
                    "material" : 4
                }
            ]
        }
    ],
    "accessors" : [
        {
            "bufferView" : 0,
            "componentType" : 5126,
            "count" : 2104,
            "max" : [
                0.007619998883455992,
                0.09974999725818634,
                -0.005361199378967285
            ],
            "min" : [
                0,
                0,
                -0.010158061981201172
            ],
            "type" : "VEC3"
        },
        {
            "bufferView" : 1,
            "componentType" : 5126,
            "count" : 2104,
            "type" : "VEC3"
        },
        {
            "bufferView" : 2,
            "componentType" : 5126,
            "count" : 2104,
            "type" : "VEC2"
        },
        {
            "bufferView" : 3,
            "componentType" : 5123,
            "count" : 3408,
            "type" : "SCALAR"
        },
        {
            "bufferView" : 4,
            "componentType" : 5126,
            "count" : 343,
            "max" : [
                0.006491243839263916,
                0.09974999725818634,
                -0.00366818904876709
            ],
            "min" : [
                0.0019755959510803223,
                0,
                -0.008182883262634277
            ],
            "type" : "VEC3"
        },
        {
            "bufferView" : 5,
            "componentType" : 5126,
            "count" : 343,
            "type" : "VEC3"
        },
        {
            "bufferView" : 6,
            "componentType" : 5126,
            "count" : 343,
            "type" : "VEC2"
        },
        {
            "bufferView" : 7,
            "componentType" : 5123,
            "count" : 564,
            "type" : "SCALAR"
        },
        {
            "bufferView" : 8,
            "componentType" : 5126,
            "count" : 1083,
            "max" : [
                0.010160207748413086,
                0.10000000149011612,
                -0.0022573471069335938
            ],
            "min" : [
                0.0002822279930114746,
                0,
                -0.007618546485900879
            ],
            "type" : "VEC3"
        },
        {
            "bufferView" : 9,
            "componentType" : 5126,
            "count" : 1083,
            "type" : "VEC3"
        },
        {
            "bufferView" : 10,
            "componentType" : 5126,
            "count" : 1083,
            "type" : "VEC2"
        },
        {
            "bufferView" : 11,
            "componentType" : 5123,
            "count" : 1716,
            "type" : "SCALAR"
        },
        {
            "bufferView" : 12,
            "componentType" : 5126,
            "count" : 547,
            "max" : [
                0.008754429407417774,
                0.10000000149011612,
                -0.0004345392808318138
            ],
            "min" : [
                0.000282510241959244,
                0,
                -0.0019751787185668945
            ],
            "type" : "VEC3"
        },
        {
            "bufferView" : 13,
            "componentType" : 5126,
            "count" : 547,
            "type" : "VEC3"
        },
        {
            "bufferView" : 14,
            "componentType" : 5126,
            "count" : 547,
            "type" : "VEC2"
        },
        {
            "bufferView" : 15,
            "componentType" : 5123,
            "count" : 888,
            "type" : "SCALAR"
        },
        {
            "bufferView" : 16,
            "componentType" : 5126,
            "count" : 1324,
            "max" : [
                0.00677355146035552,
                0.09974999725818634,
                0
            ],
            "min" : [
                0.003188496921211481,
                0,
                -0.00479865213856101
            ],
            "type" : "VEC3"
        },
        {
            "bufferView" : 17,
            "componentType" : 5126,
            "count" : 1324,
            "type" : "VEC3"
        },
        {
            "bufferView" : 18,
            "componentType" : 5126,
            "count" : 1324,
            "type" : "VEC2"
        },
        {
            "bufferView" : 19,
            "componentType" : 5123,
            "count" : 2028,
            "type" : "SCALAR"
        }
    ],
    "bufferViews" : [
        {
            "buffer" : 0,
            "byteLength" : 25248,
            "byteOffset" : 0
        },
        {
            "buffer" : 0,
            "byteLength" : 25248,
            "byteOffset" : 25248
        },
        {
            "buffer" : 0,
            "byteLength" : 16832,
            "byteOffset" : 50496
        },
        {
            "buffer" : 0,
            "byteLength" : 6816,
            "byteOffset" : 67328
        },
        {
            "buffer" : 0,
            "byteLength" : 4116,
            "byteOffset" : 74144
        },
        {
            "buffer" : 0,
            "byteLength" : 4116,
            "byteOffset" : 78260
        },
        {
            "buffer" : 0,
            "byteLength" : 2744,
            "byteOffset" : 82376
        },
        {
            "buffer" : 0,
            "byteLength" : 1128,
            "byteOffset" : 85120
        },
        {
            "buffer" : 0,
            "byteLength" : 12996,
            "byteOffset" : 86248
        },
        {
            "buffer" : 0,
            "byteLength" : 12996,
            "byteOffset" : 99244
        },
        {
            "buffer" : 0,
            "byteLength" : 8664,
            "byteOffset" : 112240
        },
        {
            "buffer" : 0,
            "byteLength" : 3432,
            "byteOffset" : 120904
        },
        {
            "buffer" : 0,
            "byteLength" : 6564,
            "byteOffset" : 124336
        },
        {
            "buffer" : 0,
            "byteLength" : 6564,
            "byteOffset" : 130900
        },
        {
            "buffer" : 0,
            "byteLength" : 4376,
            "byteOffset" : 137464
        },
        {
            "buffer" : 0,
            "byteLength" : 1776,
            "byteOffset" : 141840
        },
        {
            "buffer" : 0,
            "byteLength" : 15888,
            "byteOffset" : 143616
        },
        {
            "buffer" : 0,
            "byteLength" : 15888,
            "byteOffset" : 159504
        },
        {
            "buffer" : 0,
            "byteLength" : 10592,
            "byteOffset" : 175392
        },
        {
            "buffer" : 0,
            "byteLength" : 4056,
            "byteOffset" : 185984
        }
    ],
    "buffers" : [
        {
            "byteLength" : 190040,
            "uri" : "data:application/octet-stream;base64,"
        }
    ]
}
