{
    "asset" : {
        "generator" : "Khronos glTF Blender I/O v1.7.33",
        "version" : "2.0"
    },
    "scene" : 0,
    "scenes" : [
        {
            "name" : "Scene",
            "nodes" : [
                0,
                1
            ]
        }
    ],
    "nodes" : [
        {
            "mesh" : 0,
            "name" : "Curve",
            "scale" : [
                194.80181884765625,
                1,
                194.80181884765625
            ],
            "translation" : [
                -1,
                0,
                1
            ]
        },
        {
            "mesh" : 1,
            "name" : "Curve.001",
            "scale" : [
                194.80181884765625,
                1,
                194.80181884765625
            ],
            "translation" : [
                -1,
                0,
                1
            ]
        }
    ],
    "materials" : [
        {
            "doubleSided" : true,
            "name" : "SVGMat.014",
            "pbrMetallicRoughness" : {
                "baseColorFactor" : [
                    0.7529422044754028,
                    0.8069522380828857,
                    0.8468732237815857,
                    1
                ],
                "metallicFactor" : 0,
                "roughnessFactor" : 0.4000000059604645
            }
        },
        {
            "doubleSided" : true,
            "name" : "SVGMat.015",
            "pbrMetallicRoughness" : {
                "baseColorFactor" : [
                    0.109461709856987,
                    0.41788506507873535,
                    0.838798999786377,
                    1
                ],
                "metallicFactor" : 0,
                "roughnessFactor" : 0.4000000059604645
            }
        }
    ],
    "meshes" : [
        {
            "name" : "Curve.009",
            "primitives" : [
                {
                    "attributes" : {
                        "POSITION" : 0,
                        "NORMAL" : 1,
                        "TEXCOORD_0" : 2
                    },
                    "indices" : 3,
                    "material" : 0
                }
            ]
        },
        {
            "name" : "Curve.010",
            "primitives" : [
                {
                    "attributes" : {
                        "POSITION" : 4,
                        "NORMAL" : 5,
                        "TEXCOORD_0" : 6
                    },
                    "indices" : 7,
                    "material" : 1
                }
            ]
        }
    ],
    "accessors" : [
        {
            "bufferView" : 0,
            "componentType" : 5126,
            "count" : 1070,
            "max" : [
                0.010160207748413086,
                0.10000000149011612,
                -0.0045146942138671875
            ],
            "min" : [
                0,
                0,
                -0.010158061981201172
            ],
            "type" : "VEC3"
        },
        {
            "bufferView" : 1,
            "componentType" : 5126,
            "count" : 1070,
            "type" : "VEC3"
        },
        {
            "bufferView" : 2,
            "componentType" : 5126,
            "count" : 1070,
            "type" : "VEC2"
        },
        {
            "bufferView" : 3,
            "componentType" : 5123,
            "count" : 1716,
            "type" : "SCALAR"
        },
        {
            "bufferView" : 4,
            "componentType" : 5126,
            "count" : 10043,
            "max" : [
                0.00976452324539423,
                0.10000000149011612,
                0
            ],
            "min" : [
                0.00011298527533654124,
                0,
                -0.004232525825500488
            ],
            "type" : "VEC3"
        },
        {
            "bufferView" : 5,
            "componentType" : 5126,
            "count" : 10043,
            "type" : "VEC3"
        },
        {
            "bufferView" : 6,
            "componentType" : 5126,
            "count" : 10043,
            "type" : "VEC2"
        },
        {
            "bufferView" : 7,
            "componentType" : 5123,
            "count" : 16044,
            "type" : "SCALAR"
        }
    ],
    "bufferViews" : [
        {
            "buffer" : 0,
            "byteLength" : 12840,
            "byteOffset" : 0
        },
        {
            "buffer" : 0,
            "byteLength" : 12840,
            "byteOffset" : 12840
        },
        {
            "buffer" : 0,
            "byteLength" : 8560,
            "byteOffset" : 25680
        },
        {
            "buffer" : 0,
            "byteLength" : 3432,
            "byteOffset" : 34240
        },
        {
            "buffer" : 0,
            "byteLength" : 120516,
            "byteOffset" : 37672
        },
        {
            "buffer" : 0,
            "byteLength" : 120516,
            "byteOffset" : 158188
        },
        {
            "buffer" : 0,
            "byteLength" : 80344,
            "byteOffset" : 278704
        },
        {
            "buffer" : 0,
            "byteLength" : 32088,
            "byteOffset" : 359048
        }
    ],
    "buffers" : [
        {
            "byteLength" : 391136,
            "uri" : "data:application/octet-stream;base64,"
        }
    ]
}
