{
    "asset" : {
        "generator" : "Khronos glTF Blender I/O v1.7.33",
        "version" : "2.0"
    },
    "scene" : 0,
    "scenes" : [
        {
            "name" : "Scene",
            "nodes" : [
                0,
                1
            ]
        }
    ],
    "nodes" : [
        {
            "mesh" : 0,
            "name" : "Curve",
            "scale" : [
                198.28797912597656,
                1,
                198.28797912597656
            ],
            "translation" : [
                -1,
                0,
                1
            ]
        },
        {
            "mesh" : 1,
            "name" : "Curve.001",
            "scale" : [
                198.28797912597656,
                1,
                198.28797912597656
            ],
            "translation" : [
                -1,
                0,
                1
            ]
        }
    ],
    "materials" : [
        {
            "doubleSided" : true,
            "name" : "SVGMat.007",
            "pbrMetallicRoughness" : {
                "baseColorFactor" : [
                    1,
                    0.4125426113605499,
                    0.03310476616024971,
                    1
                ],
                "metallicFactor" : 0,
                "roughnessFactor" : 0.4000000059604645
            }
        },
        {
            "doubleSided" : true,
            "name" : "SVGMat.008",
            "pbrMetallicRoughness" : {
                "baseColorFactor" : [
                    1,
                    0.4125426113605499,
                    0.03310476616024971,
                    1
                ],
                "metallicFactor" : 0,
                "roughnessFactor" : 0.4000000059604645
            }
        }
    ],
    "meshes" : [
        {
            "name" : "Curve.004",
            "primitives" : [
                {
                    "attributes" : {
                        "POSITION" : 0,
                        "NORMAL" : 1,
                        "TEXCOORD_0" : 2
                    },
                    "indices" : 3,
                    "material" : 0
                }
            ]
        },
        {
            "name" : "Curve.005",
            "primitives" : [
                {
                    "attributes" : {
                        "POSITION" : 4,
                        "NORMAL" : 5,
                        "TEXCOORD_0" : 6
                    },
                    "indices" : 7,
                    "material" : 1
                }
            ]
        }
    ],
    "accessors" : [
        {
            "bufferView" : 0,
            "componentType" : 5126,
            "count" : 4219,
            "max" : [
                0.010160207748413086,
                0.10000000149011612,
                0
            ],
            "min" : [
                0,
                0,
                -0.010158061981201172
            ],
            "type" : "VEC3"
        },
        {
            "bufferView" : 1,
            "componentType" : 5126,
            "count" : 4219,
            "type" : "VEC3"
        },
        {
            "bufferView" : 2,
            "componentType" : 5126,
            "count" : 4219,
            "type" : "VEC2"
        },
        {
            "bufferView" : 3,
            "componentType" : 5123,
            "count" : 6816,
            "type" : "SCALAR"
        },
        {
            "bufferView" : 4,
            "componentType" : 5126,
            "count" : 348,
            "max" : [
                0.007902383804321289,
                0.10000000149011612,
                -0.0022573471069335938
            ],
            "min" : [
                0.002257823944091797,
                0,
                -0.007900714874267578
            ],
            "type" : "VEC3"
        },
        {
            "bufferView" : 5,
            "componentType" : 5126,
            "count" : 348,
            "type" : "VEC3"
        },
        {
            "bufferView" : 6,
            "componentType" : 5126,
            "count" : 348,
            "type" : "VEC2"
        },
        {
            "bufferView" : 7,
            "componentType" : 5123,
            "count" : 564,
            "type" : "SCALAR"
        }
    ],
    "bufferViews" : [
        {
            "buffer" : 0,
            "byteLength" : 50628,
            "byteOffset" : 0
        },
        {
            "buffer" : 0,
            "byteLength" : 50628,
            "byteOffset" : 50628
        },
        {
            "buffer" : 0,
            "byteLength" : 33752,
            "byteOffset" : 101256
        },
        {
            "buffer" : 0,
            "byteLength" : 13632,
            "byteOffset" : 135008
        },
        {
            "buffer" : 0,
            "byteLength" : 4176,
            "byteOffset" : 148640
        },
        {
            "buffer" : 0,
            "byteLength" : 4176,
            "byteOffset" : 152816
        },
        {
            "buffer" : 0,
            "byteLength" : 2784,
            "byteOffset" : 156992
        },
        {
            "buffer" : 0,
            "byteLength" : 1128,
            "byteOffset" : 159776
        }
    ],
    "buffers" : [
        {
            "byteLength" : 160904,
            "uri" : "data:application/octet-stream;base64,"
        }
    ]
}
