{
    "asset" : {
        "generator" : "Khronos glTF Blender I/O v1.7.33",
        "version" : "2.0"
    },
    "scene" : 0,
    "scenes" : [
        {
            "name" : "Scene",
            "nodes" : [
                0,
                1,
                2
            ]
        }
    ],
    "nodes" : [
        {
            "mesh" : 0,
            "name" : "Curve",
            "scale" : [
                202.5826416015625,
                1,
                202.5826416015625
            ],
            "translation" : [
                -1.0539770126342773,
                0,
                0.7930982112884521
            ]
        },
        {
            "mesh" : 1,
            "name" : "Curve.001",
            "scale" : [
                202.5826416015625,
                1,
                202.5826416015625
            ],
            "translation" : [
                -1.0539770126342773,
                0,
                0.7930982112884521
            ]
        },
        {
            "mesh" : 2,
            "name" : "Curve.002",
            "scale" : [
                202.5826416015625,
                1,
                202.5826416015625
            ],
            "translation" : [
                -1.0539770126342773,
                0,
                0.7930982112884521
            ]
        }
    ],
    "materials" : [
        {
            "doubleSided" : true,
            "name" : "SVGMat.010",
            "pbrMetallicRoughness" : {
                "baseColorFactor" : [
                    1,
                    0.4125426113605499,
                    0.03310476616024971,
                    1
                ],
                "metallicFactor" : 0,
                "roughnessFactor" : 0.4000000059604645
            }
        },
        {
            "doubleSided" : true,
            "name" : "SVGMat.011",
            "pbrMetallicRoughness" : {
                "baseColorFactor" : [
                    1,
                    0.4125426113605499,
                    0.03310476616024971,
                    1
                ],
                "metallicFactor" : 0,
                "roughnessFactor" : 0.4000000059604645
            }
        },
        {
            "doubleSided" : true,
            "name" : "SVGMat.012",
            "pbrMetallicRoughness" : {
                "baseColorFactor" : [
                    0.7529422044754028,
                    0.8069522380828857,
                    0.8468732237815857,
                    1
                ],
                "metallicFactor" : 0,
                "roughnessFactor" : 0.4000000059604645
            }
        }
    ],
    "meshes" : [
        {
            "name" : "Curve.006",
            "primitives" : [
                {
                    "attributes" : {
                        "POSITION" : 0,
                        "NORMAL" : 1,
                        "TEXCOORD_0" : 2
                    },
                    "indices" : 3,
                    "material" : 0
                }
            ]
        },
        {
            "name" : "Curve.007",
            "primitives" : [
                {
                    "attributes" : {
                        "POSITION" : 4,
                        "NORMAL" : 5,
                        "TEXCOORD_0" : 6
                    },
                    "indices" : 7,
                    "material" : 1
                }
            ]
        },
        {
            "name" : "Curve.008",
            "primitives" : [
                {
                    "attributes" : {
                        "POSITION" : 8,
                        "NORMAL" : 9,
                        "TEXCOORD_0" : 10
                    },
                    "indices" : 11,
                    "material" : 2
                }
            ]
        }
    ],
    "accessors" : [
        {
            "bufferView" : 0,
            "componentType" : 5126,
            "count" : 2144,
            "max" : [
                0.007619998883455992,
                0.10000000149011612,
                -0.004232525825500488
            ],
            "min" : [
                0,
                0,
                -0.009029388427734375
            ],
            "type" : "VEC3"
        },
        {
            "bufferView" : 1,
            "componentType" : 5126,
            "count" : 2144,
            "type" : "VEC3"
        },
        {
            "bufferView" : 2,
            "componentType" : 5126,
            "count" : 2144,
            "type" : "VEC2"
        },
        {
            "bufferView" : 3,
            "componentType" : 5123,
            "count" : 3408,
            "type" : "SCALAR"
        },
        {
            "bufferView" : 4,
            "componentType" : 5126,
            "count" : 349,
            "max" : [
                0.006491243839263916,
                0.09974999725818634,
                -0.002539515495300293
            ],
            "min" : [
                0.0019755959510803223,
                0,
                -0.0070542097091674805
            ],
            "type" : "VEC3"
        },
        {
            "bufferView" : 5,
            "componentType" : 5126,
            "count" : 349,
            "type" : "VEC3"
        },
        {
            "bufferView" : 6,
            "componentType" : 5126,
            "count" : 349,
            "type" : "VEC2"
        },
        {
            "bufferView" : 7,
            "componentType" : 5123,
            "count" : 564,
            "type" : "SCALAR"
        },
        {
            "bufferView" : 8,
            "componentType" : 5126,
            "count" : 1079,
            "max" : [
                0.010160207748413086,
                0.10000000149011612,
                -0.0011286735534667969
            ],
            "min" : [
                0.0002822279930114746,
                0,
                -0.006489872932434082
            ],
            "type" : "VEC3"
        },
        {
            "bufferView" : 9,
            "componentType" : 5126,
            "count" : 1079,
            "type" : "VEC3"
        },
        {
            "bufferView" : 10,
            "componentType" : 5126,
            "count" : 1079,
            "type" : "VEC2"
        },
        {
            "bufferView" : 11,
            "componentType" : 5123,
            "count" : 1716,
            "type" : "SCALAR"
        }
    ],
    "bufferViews" : [
        {
            "buffer" : 0,
            "byteLength" : 25728,
            "byteOffset" : 0
        },
        {
            "buffer" : 0,
            "byteLength" : 25728,
            "byteOffset" : 25728
        },
        {
            "buffer" : 0,
            "byteLength" : 17152,
            "byteOffset" : 51456
        },
        {
            "buffer" : 0,
            "byteLength" : 6816,
            "byteOffset" : 68608
        },
        {
            "buffer" : 0,
            "byteLength" : 4188,
            "byteOffset" : 75424
        },
        {
            "buffer" : 0,
            "byteLength" : 4188,
            "byteOffset" : 79612
        },
        {
            "buffer" : 0,
            "byteLength" : 2792,
            "byteOffset" : 83800
        },
        {
            "buffer" : 0,
            "byteLength" : 1128,
            "byteOffset" : 86592
        },
        {
            "buffer" : 0,
            "byteLength" : 12948,
            "byteOffset" : 87720
        },
        {
            "buffer" : 0,
            "byteLength" : 12948,
            "byteOffset" : 100668
        },
        {
            "buffer" : 0,
            "byteLength" : 8632,
            "byteOffset" : 113616
        },
        {
            "buffer" : 0,
            "byteLength" : 3432,
            "byteOffset" : 122248
        }
    ],
    "buffers" : [
        {
            "byteLength" : 125680,
            "uri" : "data:application/octet-stream;base64,"
        }
    ]
}
