{
    "asset" : {
        "generator" : "Khronos glTF Blender I/O v1.7.33",
        "version" : "2.0"
    },
    "scene" : 0,
    "scenes" : [
        {
            "name" : "Scene",
            "nodes" : [
                0,
                1,
                2
            ]
        }
    ],
    "nodes" : [
        {
            "mesh" : 0,
            "name" : "Curve",
            "scale" : [
                195.7933349609375,
                1,
                195.7933349609375
            ],
            "translation" : [
                -1,
                0,
                1
            ]
        },
        {
            "mesh" : 1,
            "name" : "Curve.001",
            "scale" : [
                195.7933349609375,
                1,
                195.7933349609375
            ],
            "translation" : [
                -1,
                0,
                1
            ]
        },
        {
            "mesh" : 2,
            "name" : "Curve.002",
            "scale" : [
                195.7933349609375,
                1,
                195.7933349609375
            ],
            "translation" : [
                -1,
                0,
                1
            ]
        }
    ],
    "materials" : [
        {
            "doubleSided" : true,
            "name" : "SVGMat.017",
            "pbrMetallicRoughness" : {
                "baseColorFactor" : [
                    0.9046611785888672,
                    0.2788942754268646,
                    0.0036765073891729116,
                    1
                ],
                "metallicFactor" : 0,
                "roughnessFactor" : 0.4000000059604645
            }
        },
        {
            "doubleSided" : true,
            "name" : "SVGMat.018",
            "pbrMetallicRoughness" : {
                "baseColorFactor" : [
                    0.7529422044754028,
                    0.8069522380828857,
                    0.8468732237815857,
                    1
                ],
                "metallicFactor" : 0,
                "roughnessFactor" : 0.4000000059604645
            }
        },
        {
            "doubleSided" : true,
            "name" : "SVGMat.019",
            "pbrMetallicRoughness" : {
                "baseColorFactor" : [
                    0.109461709856987,
                    0.41788506507873535,
                    0.838798999786377,
                    1
                ],
                "metallicFactor" : 0,
                "roughnessFactor" : 0.4000000059604645
            }
        }
    ],
    "meshes" : [
        {
            "name" : "Curve.011",
            "primitives" : [
                {
                    "attributes" : {
                        "POSITION" : 0,
                        "NORMAL" : 1,
                        "TEXCOORD_0" : 2
                    },
                    "indices" : 3,
                    "material" : 0
                }
            ]
        },
        {
            "name" : "Curve.012",
            "primitives" : [
                {
                    "attributes" : {
                        "POSITION" : 4,
                        "NORMAL" : 5,
                        "TEXCOORD_0" : 6
                    },
                    "indices" : 7,
                    "material" : 1
                }
            ]
        },
        {
            "name" : "Curve.013",
            "primitives" : [
                {
                    "attributes" : {
                        "POSITION" : 8,
                        "NORMAL" : 9,
                        "TEXCOORD_0" : 10
                    },
                    "indices" : 11,
                    "material" : 2
                }
            ]
        }
    ],
    "accessors" : [
        {
            "bufferView" : 0,
            "componentType" : 5126,
            "count" : 1324,
            "max" : [
                0.00677355146035552,
                0.09974999725818634,
                0
            ],
            "min" : [
                0.003188496921211481,
                0,
                -0.00479865213856101
            ],
            "type" : "VEC3"
        },
        {
            "bufferView" : 1,
            "componentType" : 5126,
            "count" : 1324,
            "type" : "VEC3"
        },
        {
            "bufferView" : 2,
            "componentType" : 5126,
            "count" : 1324,
            "type" : "VEC2"
        },
        {
            "bufferView" : 3,
            "componentType" : 5123,
            "count" : 2028,
            "type" : "SCALAR"
        },
        {
            "bufferView" : 4,
            "componentType" : 5126,
            "count" : 1070,
            "max" : [
                0.010160207748413086,
                0.10000000149011612,
                -0.0045146942138671875
            ],
            "min" : [
                0,
                0,
                -0.010158061981201172
            ],
            "type" : "VEC3"
        },
        {
            "bufferView" : 5,
            "componentType" : 5126,
            "count" : 1070,
            "type" : "VEC3"
        },
        {
            "bufferView" : 6,
            "componentType" : 5126,
            "count" : 1070,
            "type" : "VEC2"
        },
        {
            "bufferView" : 7,
            "componentType" : 5123,
            "count" : 1716,
            "type" : "SCALAR"
        },
        {
            "bufferView" : 8,
            "componentType" : 5126,
            "count" : 1688,
            "max" : [
                0.009319168515503407,
                0.10000000149011612,
                0
            ],
            "min" : [
                2.8222800096955325e-07,
                0,
                -0.004080154467374086
            ],
            "type" : "VEC3"
        },
        {
            "bufferView" : 9,
            "componentType" : 5126,
            "count" : 1688,
            "type" : "VEC3"
        },
        {
            "bufferView" : 10,
            "componentType" : 5126,
            "count" : 1688,
            "type" : "VEC2"
        },
        {
            "bufferView" : 11,
            "componentType" : 5123,
            "count" : 2664,
            "type" : "SCALAR"
        }
    ],
    "bufferViews" : [
        {
            "buffer" : 0,
            "byteLength" : 15888,
            "byteOffset" : 0
        },
        {
            "buffer" : 0,
            "byteLength" : 15888,
            "byteOffset" : 15888
        },
        {
            "buffer" : 0,
            "byteLength" : 10592,
            "byteOffset" : 31776
        },
        {
            "buffer" : 0,
            "byteLength" : 4056,
            "byteOffset" : 42368
        },
        {
            "buffer" : 0,
            "byteLength" : 12840,
            "byteOffset" : 46424
        },
        {
            "buffer" : 0,
            "byteLength" : 12840,
            "byteOffset" : 59264
        },
        {
            "buffer" : 0,
            "byteLength" : 8560,
            "byteOffset" : 72104
        },
        {
            "buffer" : 0,
            "byteLength" : 3432,
            "byteOffset" : 80664
        },
        {
            "buffer" : 0,
            "byteLength" : 20256,
            "byteOffset" : 84096
        },
        {
            "buffer" : 0,
            "byteLength" : 20256,
            "byteOffset" : 104352
        },
        {
            "buffer" : 0,
            "byteLength" : 13504,
            "byteOffset" : 124608
        },
        {
            "buffer" : 0,
            "byteLength" : 5328,
            "byteOffset" : 138112
        }
    ],
    "buffers" : [
        {
            "byteLength" : 143440,
            "uri" : "data:application/octet-stream;base64,"
        }
    ]
}
